<svg id="b0a59ccf-0c29-413b-b7b2-41f2ddce16aa" data-name="Layer 1" xmlns="http://www.w3.org/2000/svg" viewBox="0 0 2548.87 645.26"><path d="M-299.59-813.86c59-74,143.9-110.29,197.92-94.92,54.67,15.56-42,8.45-52.89,59.11,57.78-18.22,97.18-10.22,128.45,5.72,30.22,15.39-56,4.73-64.89,51.39,44.67-10.66,71-5,100.44,24.45,21.77,21.71-30.88-10.45-57.77,22.44-11.31,13.84,3.15,37.57,19.85,62.88" transform="translate(763.5 912.26)"/><path d="M545.86-750.2c59-74,143.9-110.29,197.92-94.92,54.67,15.56-42,8.44-52.89,59.11,57.78-18.22,97.18-10.22,128.45,5.71,30.22,15.4-56,4.74-64.89,51.4,44.67-10.66,71-5,100.44,24.45C876.66-682.74,824-714.9,797.12-682c-11.31,13.84,3.15,37.57,19.85,62.88" transform="translate(763.5 912.26)"/><path d="M1471.2-735.62c59-74,143.9-110.29,197.92-94.91,54.67,15.55-42,8.44-52.89,59.11,57.78-18.23,97.17-10.22,128.45,5.71,30.22,15.4-56,4.73-64.89,51.4,44.66-10.67,71-5,100.44,24.44,21.77,21.72-30.89-10.44-57.78,22.45-11.31,13.83,3.16,37.57,19.86,62.88" transform="translate(763.5 912.26)"/><path d="M1539.69-763.37c-169.77.1-249.36,356.37-420,351C940.84-417.92,865-772.45,621-764.39S337.31-501.91,206.33-504.33c-216-4-276.17-358-418.76-358C-337.76-862.37-371-611-455-613.67s-69.33-197.33-180-200S-799-612.33-737.67-575c8-60,36-90.67,54.67-108-6.67,29.33,2.67,68,8,85.33,24-53.33,41.32-66.63,58.67-60,45.33,17.34,4,166.67,116,194.67C-523-424.33-585.67-319-651-468.33c-16.44,27.55-15.56,83.55-.44,105.77C-711-381.22-703-433.67-688.33-483c-100.89,92.89-60.16,201.6,59.83,200.1C-405.67-285.67-340.33-743-215-743c98.7,0,149.33,302.67,241.33,336-101.33-8-160,117.33-244,133.33,101.34,0,401.34,4,401.34,4,10.66-20,10.66-40,5.33-60,18.67,22.67,24,41.34,24,60,4,1.34,112.44,1.34,112.44,1.34,25.34-41.78,86.67-88,132.89-101.78-7.11-47.56,6.23-97.33,42.67-154.22C468.85-464,458.33-391,478.33-361.67c-54.66,20-102.66,47.86-117.33,92.6,34.67.74,454.67,2.07,454.67,2.07,0-41.33,13.33-60,25.33-68,48.23,24.12,134.65,62.65,282.59,61,301.41-3.26,283.63-399.71,425.85-399.71,88.87,0,138.32,75.11,159.12,142.23,27.67,89.31-6.23,192-135.56,105.77,44,80,129.33,77.63,156,47.79C1831.27-492.24,1741.55-763.5,1539.69-763.37Zm-2016,214.81c-11.91,0-21.56-10.36-21.56-23.13s9.65-23.14,21.56-23.14,21.55,10.36,21.55,23.14S-464.43-548.56-476.33-548.56Z" transform="translate(763.5 912.26)"/></svg>